PathFileType	4	(X/Y/Z)	D:\Share\Shared_Data\Ergonomics\Sit To Stand Pertubation\S2\Perturbed.trc
DataRate	CameraRate	NumFrames	NumMarkers	Units	OrigDataRate	OrigDataStartFrame	OrigNumFrames	
100	100	6	18	m	100	8841	201
Frame#	Time	R_Toe			R_ASIS			R_Pelvis			V_Sacral			L_Pelvis			L_ASIS			Clavical			R_Acromium			L_Acromium			Sternum			Torso			R_Thigh_Med			R_Thigh_Lat			R_Thigh			R_Shank_Med			R_Shank_Lat			R_Shank			R_Heel			
		X1	Y1	Z1	X2	Y2	Z2	X3	Y3	Z3	X4	Y4	Z4	X5	Y5	Z5	X6	Y6	Z6	X7	Y7	Z7	X8	Y8	Z8	X9	Y9	Z9	X10	Y10	Z10	X11	Y11	Z11	X12	Y12	Z12	X13	Y13	Z13	X14	Y14	Z14	X15	Y15	Z15	X16	Y16	Z16	X17	Y17	Z17	X18	Y18	Z18	

8841	88.4	0.43180099	0.06636277	0.14590811	0.37307016	1.0306066	0.13292586	0.29773233	1.0343853	0.18061348	0.14938255	1.0413557	0.024086201	0.24159612	1.0419188	-0.15975467	0.33890118	1.0444548	-0.13986421	0.38968298	1.4616875	-0.0095946903	0.30189703	1.4889673	0.2031355	0.26970081	1.4952935	-0.18839468	0.43145645	1.3012277	-0.015331804	0.3910007	1.4226949	-0.12563147	0.33858606	0.49857236	0.090152458	0.32804224	0.52283752	0.18028178	0.39694946	0.68824896	0.15784023	0.29763455	0.10885839	0.10850058	0.2751113	0.099174568	0.20072618	0.29774255	0.37335385	0.21287689	0.19398309	0.05930183	0.14912341
8842	88.41	0.43177481	0.066399216	0.1459209	0.37536163	1.0308602	0.13303169	0.2999892	1.0344102	0.18066956	0.15178467	1.0411061	0.023950586	0.24399663	1.0418123	-0.15974484	0.34127469	1.0444653	-0.13987527	0.38891953	1.4623582	-0.0096024752	0.30037946	1.4890941	0.20300912	0.26868494	1.4950432	-0.18848671	0.43188657	1.3021184	-0.015310042	0.39059958	1.4233121	-0.12566771	0.33750305	0.49854352	0.090203423	0.32690137	0.52286877	0.1800938	0.39731775	0.68767474	0.15782341	0.29760046	0.10884983	0.1085445	0.27504001	0.099164459	0.20074631	0.29684924	0.37341119	0.21285059	0.19396169	0.059258255	0.14913881
8843	88.42	0.43174927	0.066428009	0.14594469	0.37756351	1.0310237	0.13315071	0.30214331	1.0343688	0.18071738	0.15408073	1.0407738	0.023804945	0.24631493	1.0416162	-0.15975311	0.34357733	1.0443862	-0.13987567	0.38821539	1.462874	-0.0096137753	0.29892331	1.4890795	0.2028709	0.26776721	1.4946798	-0.18859439	0.4323009	1.3028497	-0.015275053	0.39024237	1.4237738	-0.12569817	0.33649069	0.49848804	0.09029158	0.32581839	0.52288275	0.1799476	0.39768597	0.68710022	0.15789467	0.29756711	0.10883271	0.10858489	0.27496927	0.099148987	0.20075827	0.29599789	0.37345837	0.21285039	0.19394302	0.059215424	0.14915181
8844	88.43	0.43172528	0.066445511	0.1459772	0.37968713	1.0311034	0.13327173	0.30420459	1.0342623	0.18075638	0.15626634	1.0403566	0.023657841	0.24853316	1.0413337	-0.15978325	0.34579065	1.0442301	-0.13987746	0.3875719	1.463245	-0.0096297913	0.29753387	1.4889279	0.20272382	0.26695343	1.4942131	-0.18871906	0.43269202	1.3034292	-0.015228885	0.38992648	1.4240852	-0.12572334	0.33553397	0.49840768	0.090395462	0.32479321	0.52288098	0.17982332	0.39805115	0.68652277	0.15802768	0.29753961	0.10880495	0.10861233	0.27489957	0.099129196	0.20075197	0.29518204	0.37349786	0.21286281	0.19392883	0.059176445	0.14916066
8845	88.44	0.4317037	0.066449631	0.14601579	0.38174384	1.0311069	0.13338179	0.30618579	1.0340966	0.18078436	0.15834457	1.0398594	0.023517759	0.25063718	1.0409745	-0.15983566	0.34789917	1.0440126	-0.13989365	0.38698743	1.4634847	-0.0096513767	0.29621536	1.48865	0.20257016	0.26624396	1.4936576	-0.18886009	0.4330546	1.3038702	-0.015175045	0.38964883	1.4242593	-0.12574437	0.33462131	0.49830859	0.090498627	0.32382254	0.52286737	0.17970615	0.3984097	0.68594159	0.15819205	0.29752209	0.1087656	0.10861858	0.27483167	0.099106766	0.20072023	0.29439465	0.37353268	0.21287218	0.19392055	0.0591441	0.14916382
8846	88.45	0.43168506	0.066440277	0.14605791	0.38374417	1.031046	0.13346844	0.30810135	1.0338806	0.18079727	0.16032428	1.039296	0.023390526	0.2526198	1.0405541	-0.15990779	0.34989368	1.0437521	-0.13993517	0.38645706	1.4636108	-0.0096788549	0.29497128	1.4882622	0.2024109	0.26563327	1.4930323	-0.18901541	0.43338553	1.3041915	-0.015118301	0.38940512	1.4243148	-0.12576313	0.33374445	0.49820071	0.090591423	0.32289761	0.52284705	0.1795838	0.39875989	0.68535815	0.15835495	0.29751639	0.10871489	0.10859792	0.27476593	0.099083832	0.20065962	0.29362662	0.37356647	0.21286385	0.19391905	0.059120556	0.14916003
